# AST/ASF file generated using VICON BodyLanguage
# -----------------------------------------------
:version 1.10
:name VICON
:units
  mass 1.0
  length 0.45
  angle deg
:documentation
   .ast/.asf automatically generated from VICON data using
   VICON BodyBuilder and BodyLanguage model FoxedUp or BRILLIANT.MOD
:root
   order TX TY TZ RX RY RZ
   axis XYZ
   position 0 0 0  
   orientation 0 0 0 
:bonedata
  begin
     id 1 
     name lhipjoint
     direction 0.610259 -0.730986 0.305356 
     length 2.50941 
     axis 0 0 0  XYZ
  end
  begin
     id 2 
     name lfemur
     direction 0.34202 -0.939693 0  
     length 7.48822  
     axis 0 0 20  XYZ
    dof rx ry rz
    limits (-160.0 20.0)
           (-70.0 70.0)
           (-60.0 70.0)
  end
  begin
     id 3 
     name ltibia
     direction 0.34202 -0.939693 0   
     length 7.60141   
     axis 0 0 20   XYZ
    dof rx
    limits (-10.0 170.0)
  end
  begin
     id 4 
     name lfoot
     direction 0.0673488 -0.185039 0.980421   
     length 2.04049   
     axis -90 7.62852e-016 20   XYZ
    dof rx rz
    limits (-45.0 90.0)
           (-70.0 20.0)
  end
  begin
     id 5 
     name ltoes
     direction 1.5356e-011 -4.21729e-011 1   
     length 1.02897   
     axis -90 7.62852e-016 20   XYZ
    dof rx
    limits (-90.0 20.0)
  end
  begin
     id 6 
     name rhipjoint
     direction -0.57612 -0.754205 0.315056   
     length 2.43216  
     axis 0 0 0  XYZ 
  end
  begin
     id 7 
     name rfemur
     direction -0.34202 -0.939693 0   
     length 7.42799   
     axis 0 0 -20   XYZ
    dof rx ry rz
    limits (-160.0 20.0)
           (-70.0 70.0)
           (-70.0 60.0)
  end
  begin
     id 8 
     name rtibia
     direction -0.34202 -0.939693 0   
     length 7.69484   
     axis 0 0 -20   XYZ
    dof rx
    limits (-10.0 170.0)
 end
 begin
     id 9 
     name rfoot
     direction -0.111837 -0.30727 0.945028   
     length 2.15769  
     axis -90 -7.62852e-016 -20   XYZ
    dof rx rz
    limits (-45.0 90.0)
           (-20.0 70.0)
  end
  begin
     id 10 
     name rtoes
     direction -1.53539e-011 -4.21878e-011 1   
     length 1.07391   
     axis -90 -7.62852e-016 -20   XYZ
    dof rx
    limits (-90.0 20.0)
  end
  begin
     id 11 
     name lowerback
     direction 0.00552624 0.990109 -0.140195   
     length 2.12403   
     axis 0 0 0   XYZ
    dof rx ry rz
    limits (-20.0 45.0)
           (-30.0 30.0)
           (-30.0 30.0)
  end
  begin
     id 12 
     name upperback
     direction 0.00361898 0.999976 -0.00584723   
     length 2.13232   
     axis 0 0 0   XYZ
    dof rx ry rz
    limits (-20.0 45.0)
           (-30.0 30.0)
           (-30.0 30.0)
  end
  begin
     id 13 
     name thorax
     direction -0.000331275 0.998253 0.0590847   
     length 2.17688   
     axis 0 0 0   XYZ
    dof rx ry rz
    limits (-20.0 45.0)
           (-30.0 30.0)
           (-30.0 30.0)
  end
  begin
     id 14 
     name lowerneck
     direction -0.0561561 0.979832 0.19177   
     length 1.64159   
     axis 0 0 0   XYZ
    dof rx ry rz
    limits (-20.0 45.0)
           (-30.0 30.0)
           (-30.0 30.0)
  end
  begin
     id 15 
     name upperneck
     direction 0.0827153 0.979385 -0.184293   
     length 1.68939   
     axis 0 0 0   XYZ
    dof rx ry rz
    limits (-20.0 45.0)
           (-30.0 30.0)
           (-30.0 30.0)
  end
  begin
     id 16
     name head
     direction 0.0278583 0.995936 -0.0856488  
     length 1.70207  
     axis 0 0 0   XYZ
    dof rx ry rz
    limits (-20.0 45.0)
           (-30.0 30.0)
           (-30.0 30.0)
  end
  begin
     id 17 
     name lclavicle
     direction 0.950993 0.301131 -0.0702275  
     length 3.41652  
     axis 0 0 0   XYZ
    dof ry rz
    limits (-20.0 10.0)
           (0.0 20.0)
  end
  begin
     id 18 
     name lhumerus
     direction 1 -4.48981e-011 -3.9662e-029   
     length 5.32955   
     axis 180 -30 -90   XYZ
    dof rx ry rz
    limits (-60.0 90.0)
           (-90.0 90.0)
           (-90.0 90.0)
  end
  begin
     id 19
     name lradius
     direction 1 -4.48925e-011 -9.0549e-027   
     length 3.69232   
     axis 180 -30 -90   XYZ
    dof rx
    limits (-10.0 170.0)
  end
  begin
     id 20
     name lwrist
     direction 1 -4.49007e-011 -1.49005e-026   
     length 1.84616   
     axis 9.0955e-015 90 90   XYZ
    dof ry
    limits (-180.0 0.0)
 end
  begin
     id 21 
     name lhand
     direction 1 -4.49016e-011 -2.98023e-026   
     length 0.536598   
     axis 1.90115e-014 90 90   XYZ
    dof rx rz
    limits (-90.0 90.0)
           (-45.0 45.0)
  end
  begin
     id 22 
     name lfingers
     direction 1 -4.48924e-011 -5.9578e-026   
     length 0.432619   
     axis 3.80223e-014 90 90   XYZ
    dof rx
    limits (0.0 90.0)
  end
  begin
     id 23
     name lthumb
     direction 0.707107 -6.34947e-011 0.707107   
     length 0.621157   
     axis -90 45 -3.84942e-014   XYZ
    dof rx rz
    limits (-45.0 45.0)
           (-45.0 45.0)
  end
  begin
     id 24 
     name rclavicle
     direction -0.955495 0.276497 -0.102848   
     length 3.36357  
     axis 0 0 0   XYZ 
    dof ry rz
    limits (-10.0 20.0)
           (-20.0 0.0)
  end
  begin
     id 25 
     name rhumerus
     direction -1 -4.48961e-011 3.30983e-027  
     length 5.23431   
     axis 180 30 90   XYZ
    dof rx ry rz
    limits (-90.0 60.0)
           (-90.0 90.0)
           (-90.0 90.0)
  end
  begin
     id 26 
     name rradius
     direction -1 -4.48965e-011 -6.63263e-027   
     length 3.55301   
     axis 180 30 90   XYZ
    dof rx
    limits (-10.0 170.0)
  end
  begin
     id 27 
     name rwrist
     direction -1 -4.48942e-011 -1.48958e-026   
     length 1.77651   
     axis 9.0955e-015 -90 -90   XYZ
    dof ry
    limits (-180.0 0.0)
  end
  begin
     id 28
     name rhand
     direction -1 -4.48977e-011 -2.97966e-026   
     length 0.772522   
     axis 1.90115e-014 -90 -90   XYZ
    dof rx rz
    limits (-90.0 90.0)
           (-45.0 45.0)
  end
  begin
     id 29
     name rfingers
     direction -1 -4.49135e-011 -5.96389e-026   
     length 0.622827   
     axis 3.80223e-014 -90 -90   XYZ
    dof rx
    limits (0.0 90.0)
  end
  begin
     id 30
     name rthumb
     direction -0.707107 -6.34969e-011 0.707107   
     length 0.894259   
     axis -90 -45 3.84942e-014   XYZ
    dof rx rz
    limits (-45.0 45.0)
           (-45.0 45.0)
  end
:hierarchy
  begin
    root lhipjoint rhipjoint lowerback
    lhipjoint lfemur
    lfemur ltibia
    ltibia lfoot
    lfoot ltoes
    rhipjoint rfemur
    rfemur rtibia
    rtibia rfoot
    rfoot rtoes
    lowerback upperback
    upperback thorax
    thorax lowerneck lclavicle rclavicle
    lowerneck upperneck
    upperneck head
    lclavicle lhumerus
    lhumerus lradius
    lradius lwrist
    lwrist lhand lthumb
    lhand lfingers
    rclavicle rhumerus
    rhumerus rradius
    rradius rwrist
    rwrist rhand rthumb
    rhand rfingers
  end

#!OML:ASF F:\VICON\USERDATA\INSTALL\rory3\rory3.ASF
:FULLY-SPECIFIED
:DEGREES
320
root -3.03733 17.8932 -0.631197 3.15404 36.7263 5.18951
lowerback 10.869 2.57828 3.37327
upperback 1.31461 3.87593 0.726505
thorax -4.53885 1.86782 -1.69707
lowerneck -16.5485 7.43481 -7.71501
upperneck 45.3913 15.4808 2.73494
head 19.5362 5.51816 5.9208
rclavicle 1.08338e-014 -1.90833e-014
rhumerus -30.3543 -17.6577 -71.4568
rradius 31.5532
rwrist 3.86878
rhand -16.0838 7.62757
rfingers 7.12502
rthumb 10.1193 -22.1091
lclavicle 1.08338e-014 -1.90833e-014
lhumerus -32.0793 13.831 80.8603
lradius 29.7385
lwrist -12.697
lhand -20.8971 22.9302
lfingers 7.12502
lthumb 5.47371 52.8395
rfemur -10.2138 -0.522284 14.5508
rtibia 32.1807
rfoot -17.6215 -4.19282
rtoes -2.19656
lfemur -13.7727 -3.87276 -20.6383
ltibia 31.5305
lfoot -15.2528 0.914095
ltoes -15.1655
321
root -2.99072 17.9033 -0.677097 3.11141 36.5497 5.17671
lowerback 10.9253 2.54186 3.33702
upperback 1.33858 3.82533 0.729747
thorax -4.55012 1.84355 -1.66883
lowerneck -16.8875 7.37668 -7.99707
upperneck 45.5249 15.3994 3.05412
head 19.6395 5.45688 6.1409
rclavicle -8.02096e-014 -1.59028e-015
rhumerus -30.1877 -17.8938 -71.3554
rradius 31.5108
rwrist 3.52574
rhand -16.3169 7.45072
rfingers 7.12502
rthumb 9.89443 -22.2968
lclavicle -8.02096e-014 -1.59028e-015
lhumerus -32.1561 14.0406 80.8194
lradius 29.7037
lwrist -12.5227
lhand -20.7565 23.2544
lfingers 7.12502
lthumb 5.60941 53.1601
rfemur -10.0655 -0.392282 14.3123
rtibia 31.8186
rfoot -17.3854 -4.11902
rtoes -2.5614
lfemur -13.6231 -4.08404 -20.0771
ltibia 31.569
lfoot -14.899 1.208
ltoes -14.722
322
root -2.94289 17.9124 -0.725481 3.07015 36.401 5.13451
lowerback 10.978 2.53856 3.34219
upperback 1.33968 3.82411 0.737021
thorax -4.57847 1.84226 -1.66683
lowerneck -17.1445 7.29225 -8.18725
upperneck 45.6385 15.2916 3.25412
head 19.743 5.38819 6.28086
rclavicle 1.26626e-013 1.74931e-014
rhumerus -30.1659 -18.1691 -71.1847
rradius 31.5502
rwrist 3.14249
rhand -16.4732 7.37038
rfingers 7.12502
rthumb 9.74367 -22.3842
lclavicle 1.26626e-013 1.74931e-014
lhumerus -32.2027 14.3764 80.669
lradius 29.3257
lwrist -12.184
lhand -21.2331 22.0449
lfingers 7.12502
lthumb 5.14926 51.9624
rfemur -9.94151 -0.213093 14.0909
rtibia 31.4633
rfoot -17.2035 -4.06946
rtoes -2.77047
lfemur -13.5276 -4.20112 -19.4754
ltibia 31.5898
lfoot -14.5682 1.24773
ltoes -14.1769
323
root -2.89408 17.921 -0.771781 2.97704 36.3168 5.06615
lowerback 10.9876 2.51783 3.32106
upperback 1.39468 3.79493 0.76699
thorax -4.53109 1.83029 -1.61858
lowerneck -17.2287 7.24707 -8.06155
upperneck 45.6134 15.2217 3.14289
head 19.7916 5.35768 6.20451
rclavicle 1.8487e-014 1.74931e-014
rhumerus -30.2104 -18.5114 -71.019
rradius 31.7577
rwrist 2.88642
rhand -16.3853 7.42628
rfingers 7.12502
rthumb 9.82842 -22.3243
lclavicle 1.8487e-014 1.74931e-014
lhumerus -32.2134 14.6806 80.5633
lradius 29.1919
lwrist -12.2858
lhand -20.5569 22.5676
lfingers 7.12502
lthumb 5.80215 52.4682
rfemur -9.75502 0.0416332 13.9078
rtibia 31.111
rfoot -17.0028 -4.11444
rtoes -2.54166
lfemur -13.3937 -4.42377 -18.8102
ltibia 31.5927
lfoot -14.1536 1.16591
ltoes -13.8985
324
root -2.84585 17.9283 -0.818045 2.83936 36.1943 4.96929
lowerback 11.0415 2.49983 3.33635
upperback 1.45098 3.77401 0.767552
thorax -4.50205 1.82113 -1.62469
lowerneck -17.2712 7.2338 -7.92443
upperneck 45.5511 15.15 3.09571
head 19.7906 5.34414 6.14589
rclavicle -9.72057e-014 -1.59028e-014
rhumerus -30.1442 -18.8317 -70.9427
rradius 31.7666
rwrist 2.75996
rhand -16.4666 7.636
rfingers 7.12502
rthumb 9.75001 -22.1183
lclavicle -9.72057e-014 -1.59028e-014
lhumerus -32.2063 14.7297 80.546
lradius 29.1254
lwrist -11.8707
lhand -20.6302 23.7531
lfingers 7.12502
lthumb 5.73138 53.6556
rfemur -9.54242 0.29315 13.7538
rtibia 30.7463
rfoot -16.7529 -4.144
rtoes -2.61473
lfemur -13.1622 -4.72349 -18.0993
ltibia 31.5765
lfoot -13.7876 1.02488
ltoes -13.224
325
root -2.79548 17.936 -0.864568 2.74777 36.055 4.93476
lowerback 11.0958 2.56414 3.40445
upperback 1.43528 3.8641 0.654658
thorax -4.53172 1.86263 -1.7961
lowerneck -17.1131 7.16545 -7.66439
upperneck 45.4754 14.8996 3.09228
head 19.7443 5.30021 6.03906
rclavicle 5.94366e-014 -1.59028e-014
rhumerus -30.2879 -19.1224 -70.8871
rradius 31.7441
rwrist 2.51089
rhand -16.662 7.73918
rfingers 7.12502
rthumb 9.56149 -22.0239
lclavicle 5.94366e-014 -1.59028e-014
lhumerus -32.317 14.4051 80.4449
lradius 28.9895
lwrist -11.2977
lhand -20.9652 23.7765
lfingers 7.12502
lthumb 5.40792 53.6875
rfemur -9.35042 0.440319 13.5295
rtibia 30.3958
rfoot -16.5237 -4.09063
rtoes -2.82664
lfemur -12.9036 -5.01561 -17.4321
ltibia 31.5323
lfoot -13.3983 0.722756
ltoes -11.5514
326
root -2.74251 17.9435 -0.910302 2.65934 35.9496 4.90029
lowerback 11.1463 2.7555 3.6407
upperback 1.29348 4.13763 0.392321
thorax -4.65756 1.98615 -2.24676
lowerneck -16.4512 6.99397 -7.04596
upperneck 45.2927 14.3035 3.03585
head 19.5576 5.20685 5.73804
rclavicle -4.96962e-014 1.59028e-014
rhumerus -30.9819 -19.6549 -70.7401
rradius 31.9057
rwrist 2.12476
rhand -16.6638 7.61263
rfingers 7.12502
rthumb 9.55974 -22.1505
lclavicle -4.96962e-014 1.59028e-014
lhumerus -32.5871 13.7873 80.112
lradius 28.8004
lwrist -11.4156
lhand -20.7057 22.6855
lfingers 7.12502
lthumb 5.65851 52.5899
rfemur -9.17158 0.520715 13.295
rtibia 30.0902
rfoot -16.3522 -4.01294
rtoes -3.23997
lfemur -12.6683 -5.41634 -16.7407
ltibia 31.4517
lfoot -12.9056 0.434384
ltoes -9.65892
327
root -2.68719 17.9459 -0.959804 2.59061 35.8471 4.89254
lowerback 11.2697 2.64685 3.55667
upperback 1.35556 3.9928 0.493227
thorax -4.68296 1.91733 -2.07968
lowerneck -16.6418 7.06455 -7.35331
upperneck 45.2562 14.5188 3.06784
head 19.5315 5.23854 5.84679
rclavicle -8.43841e-014 -1.59028e-015
rhumerus -30.6693 -19.1564 -70.7529
rradius 31.8158
rwrist 1.94066
rhand -16.5011 7.4563
rfingers 7.12502
rthumb 9.71674 -22.2996
lclavicle -8.43841e-014 -1.59028e-015
lhumerus -32.5845 14.4449 80.1054
lradius 28.6441
lwrist -11.2667
lhand -20.8453 22.8619
lfingers 7.12502
lthumb 5.52368 52.7699
rfemur -9.01303 0.663926 13.0303
rtibia 29.8023
rfoot -16.1572 -4.03295
rtoes -4.0584
lfemur -12.4698 -5.85982 -16.0717
ltibia 31.3244
lfoot -12.2191 0.291591
ltoes -9.88243
328
root -2.6296 17.9477 -1.00916 2.55725 35.7278 4.91258
lowerback 11.2383 2.57976 3.46029
upperback 1.44585 3.89079 0.529709
thorax -4.58568 1.87272 -1.96859
lowerneck -16.7308 7.1088 -7.43204
upperneck 45.1929 14.6249 3.02494
head 19.5039 5.25905 5.85598
rclavicle -6.54002e-014 3.97569e-015
rhumerus -30.5066 -18.9443 -70.7814
rradius 31.8908
rwrist 2.08755
rhand -16.4769 7.46863
rfingers 7.12502
rthumb 9.74002 -22.2861
lclavicle -6.54002e-014 3.97569e-015
lhumerus -32.5427 14.8297 80.0587
lradius 28.5624
lwrist -11.2345
lhand -20.5697 23.3496
lfingers 7.12502
lthumb 5.78983 53.2505
rfemur -8.89062 0.80294 12.7248
rtibia 29.5331
rfoot -15.9947 -3.97883
rtoes -4.4653
lfemur -12.2304 -6.18826 -15.4547
ltibia 31.1419
lfoot -11.5221 0.333308
ltoes -11.6919
329
root -2.57369 17.9509 -1.05358 2.44197 35.6054 4.87389
lowerback 11.2872 2.52599 3.40788
upperback 1.50082 3.81427 0.532532
thorax -4.56305 1.83724 -1.92648
lowerneck -16.8391 7.14189 -7.4137
upperneck 45.1784 14.7039 2.95965
head 19.5311 5.27556 5.84376
rclavicle -8.38871e-014 -6.36111e-015
rhumerus -30.5607 -18.7208 -70.877
rradius 32.1585
rwrist 2.08745
rhand -16.3889 7.63032
rfingers 7.12502
rthumb 9.82494 -22.1205
lclavicle -8.38871e-014 -6.36111e-015
lhumerus -32.5893 14.9762 79.9302
lradius 28.5531
lwrist -11.1903
lhand -20.3295 23.9145
lfingers 7.12502
lthumb 6.02173 53.809
rfemur -8.70966 1.03584 12.4996
rtibia 29.2937
rfoot -15.8827 -3.99084
rtoes -4.55681
lfemur -11.8785 -6.46353 -14.7889
ltibia 30.9239
lfoot -11.1877 0.359825
ltoes -9.91169
330
root -2.51873 17.9531 -1.1002 2.34871 35.4836 4.9173
lowerback 11.4241 2.48182 3.28644
upperback 1.53821 3.74494 0.516513
thorax -4.61021 1.80444 -1.87179
lowerneck -16.9163 7.19133 -7.44872
upperneck 45.1983 14.7963 2.97507
head 19.5512 5.30089 5.87983
rclavicle -7.00716e-014 3.97569e-015
rhumerus -30.5793 -18.458 -70.9673
rradius 32.2612
rwrist 2.16283
rhand -16.2885 7.73211
rfingers 7.12502
rthumb 9.92182 -22.0141
lclavicle -7.00716e-014 3.97569e-015
lhumerus -32.5877 15.328 79.7053
lradius 28.2968
lwrist -11.2166
lhand -20.6051 23.8823
lfingers 7.12502
lthumb 5.75559 53.7841
rfemur -8.5191 1.30869 12.2128
rtibia 29.0786
rfoot -15.7512 -4.09111
rtoes -4.74699
lfemur -11.5117 -6.72415 -14.2008
ltibia 30.6698
lfoot -10.8806 0.441751
ltoes -7.3114
